<?xml version="1.0" encoding="utf-8"?>
<!-- Generator: Adobe Illustrator 16.0.0, SVG Export Plug-In . SVG Version: 6.00 Build 0)  -->
<!DOCTYPE svg PUBLIC "-//W3C//DTD SVG 1.1 Basic//EN" "http://www.w3.org/Graphics/SVG/1.1/DTD/svg11-basic.dtd">
<svg version="1.1" baseProfile="basic" id="Calque_1"
	 xmlns="http://www.w3.org/2000/svg" xmlns:xlink="http://www.w3.org/1999/xlink" x="0px" y="0px" width="997.166px" height="557px"
	 viewBox="0 0 997.166 557" xml:space="preserve">
<polygon fill="#FFFFFF" points="256.396,5.287 2,230.548 28.794,260.775 257.436,58.312 453.417,231.41 480.163,201.18 
	258.422,5.287 257.436,6.432 "/>
<polygon fill="#FFFFFF" points="78.066,37.711 142.553,37.711 141.997,75.91 78.066,133.661 "/>
<g>
	<path fill="#FFFFFF" d="M436.706,250.931L257.436,92.172L78.066,250.994l-0.004,237.524h87.968V264.824l62.329-7.854v136.964
		c0,9.804,2.526,32.604,25.928,32.604c29.273,0,39.66-23.057,39.66-42.802V264.824l62.339-7.854v218.552l-59.595,3.967v-16.62
		c-14.291,14.048-30.445,19.335-55.746,19.335c-3.694,0-8.082-0.118-12.586-0.777v7.093h208.347V250.931z"/>
</g>
<path fill="#FFFFFF" d="M350.036,264.056v205.617l-47.095,3.135v-25.899h-0.784c-16.867,22.766-33.354,29.045-61.213,29.045
	c-6.279,0-12.944-0.397-18.835-2.358v60.438l-49.829,6.275V270.335l49.829-6.279v129.877c0,21.192,9.81,38.854,32.178,38.854
	c31.391,0,45.91-23.94,45.91-49.053V270.335L350.036,264.056 M234.609,249.882l-14.063,1.772l-49.829,6.279l-10.937,1.378v11.024
	v269.972v14.174l14.062-1.771l49.829-6.276l10.938-1.378v-11.023v-45.729c2.25,0.119,4.384,0.15,6.335,0.15
	c18.825,0,34.761-2.507,49.497-12.476v10.189l13.33-0.887l47.095-3.136l11.67-0.776v-11.695V264.056v-14.174l-14.063,1.772
	l-49.838,6.279l-10.938,1.378v11.024v113.401c0,17.67-8.776,36.552-33.41,36.552c-6.593,0-11.182-2.045-14.443-6.436
	c-3.376-4.543-5.235-11.617-5.235-19.919V264.056V249.882L234.609,249.882z"/>
<path fill="#FFFFFF" d="M630.829,466.721c-11.379,6.67-31.781,10.201-43.944,10.201c-83.182,0-138.505-62.386-138.505-140.857
	c0-77.688,56.5-140.859,136.936-140.859c12.947,0,32.565,3.139,43.553,9.809L637.5,267.4
	c-14.125-11.379-32.174-19.226-54.538-19.226c-47.477,0-80.435,42.375-80.435,87.891c0,50.223,37.667,87.89,82.788,87.89
	c21.579,0,38.452-10.986,52.575-22.365L630.829,466.721z"/>
<path fill="#FFFFFF" d="M684.977,236.795l49.831-22.365v56.893h45.122v43.159h-45.122v85.145c0,19.227,8.239,31.781,37.272,31.781
	c5.495,0,11.771-0.394,17.266-0.785l-12.163,44.729c-4.708,1.179-13.34,1.569-19.618,1.569c-41.983,0-72.588-22.364-72.588-66.701
	v-95.737h-30.604l10.986-43.159h19.617V236.795L684.977,236.795z"/>
<path fill="#FFFFFF" d="M848.984,302.713h0.783c17.266-30.997,39.63-37.275,74.157-37.667l-17.264,52.97
	c-38.061,0-54.933,22.364-54.933,56.893v95.736l-49.829,3.14v-202.46l47.084-4.708L848.984,302.713L848.984,302.713z"/>
<polygon fill="#FFFFFF" points="933.732,473.783 933.732,201.482 983.562,195.204 983.562,470.645 "/>
</svg>
